<svg width="790" height="408" viewBox="0 0 790 408" fill="none" xmlns="http://www.w3.org/2000/svg">
<g clip-path="url(#clip0_1845_17871)">
<path fill-rule="evenodd" clip-rule="evenodd" d="M340.346 2C426.908 2 497.737 69.359 503.278 154.52C521.969 140.676 545.104 132.488 570.151 132.488C624.635 132.488 670.069 171.23 680.411 222.667H696.284C746.937 222.667 788 263.731 788 314.384C788 365.038 746.937 406.102 696.284 406.102H127.598H127.364H127.13H117.97V405.755C53.1212 400.951 2 346.815 2 280.738C2 211.502 58.1273 155.374 127.364 155.374C145.022 155.374 161.827 159.025 177.066 165.613C177.066 165.502 177.066 165.391 177.066 165.28C177.066 75.1031 250.169 2 340.346 2Z" fill="#F1F1F6"/>
<mask id="mask0_1845_17871" style="mask-type:luminance" maskUnits="userSpaceOnUse" x="0" y="0" width="790" height="408">
<path d="M790 0H0V408H790V0Z" fill="white"/>
<path fill-rule="evenodd" clip-rule="evenodd" d="M340.346 2C426.908 2 497.737 69.359 503.278 154.52C521.969 140.676 545.104 132.488 570.151 132.488C624.635 132.488 670.069 171.23 680.411 222.667H696.284C746.937 222.667 788 263.731 788 314.384C788 365.038 746.937 406.102 696.284 406.102H127.598H127.364H127.13H117.97V405.755C53.1212 400.951 2 346.815 2 280.738C2 211.502 58.1273 155.374 127.364 155.374C145.022 155.374 161.827 159.025 177.066 165.613C177.066 165.502 177.066 165.391 177.066 165.28C177.066 75.1031 250.169 2 340.346 2Z" fill="#F1F1F6"/>
</mask>
<g mask="url(#mask0_1845_17871)">
<path d="M503.278 154.52L501.744 154.62L501.927 157.434L504.192 155.756L503.278 154.52ZM680.411 222.667L678.904 222.97L679.152 224.205H680.411V222.667ZM127.598 406.102V404.564H127.596L127.598 406.102ZM127.364 406.102L127.362 407.639H127.365L127.364 406.102ZM117.97 406.102H116.433V407.639H117.97V406.102ZM117.97 405.755H119.508V404.328L118.084 404.222L117.97 405.755ZM177.066 165.613L176.456 167.024L178.608 167.954L178.603 165.61L177.066 165.613ZM504.812 154.421C499.219 68.4562 427.724 0.462891 340.346 0.462891V3.53721C426.093 3.53721 496.256 70.262 501.744 154.62L504.812 154.421ZM570.151 130.951C544.764 130.951 521.31 139.251 502.363 153.285L504.192 155.756C522.629 142.1 545.445 134.025 570.151 134.025V130.951ZM681.918 222.364C671.435 170.223 625.381 130.951 570.151 130.951V134.025C623.888 134.025 668.704 172.236 678.904 222.97L681.918 222.364ZM696.284 221.13H680.411V224.205H696.284V221.13ZM696.284 224.205C746.088 224.205 786.463 264.579 786.463 314.384H789.537C789.537 262.882 747.786 221.13 696.284 221.13V224.205ZM786.463 314.384C786.463 364.19 746.088 404.564 696.284 404.564V407.639C747.786 407.639 789.537 365.887 789.537 314.384H786.463ZM127.598 407.639H696.284V404.564H127.598V407.639ZM127.365 407.639H127.598L127.596 404.564L127.362 404.565L127.365 407.639ZM127.128 407.639H127.362L127.365 404.565L127.131 404.564L127.128 407.639ZM117.97 407.639H127.13L127.131 404.564H117.97V407.639ZM116.433 405.755V406.102H119.508V405.755H116.433ZM0.462891 280.738C0.462891 347.626 52.2109 402.425 117.857 407.288L118.084 404.222C54.0314 399.478 3.53721 346.004 3.53721 280.738H0.462891ZM127.364 153.837C57.2783 153.837 0.462891 210.653 0.462891 280.738H3.53721C3.53721 212.35 58.9762 156.911 127.364 156.911V153.837ZM177.676 164.202C162.248 157.532 145.235 153.837 127.364 153.837V156.911C144.808 156.911 161.406 160.518 176.456 167.024L177.676 164.202ZM175.529 165.28C175.529 165.392 175.529 165.504 175.529 165.616L178.603 165.61C178.603 165.5 178.603 165.39 178.603 165.28H175.529ZM340.346 0.462891C249.32 0.462891 175.529 74.2541 175.529 165.28H178.603C178.603 75.952 251.018 3.53721 340.346 3.53721V0.462891Z" fill="white"/>
</g>
<path d="M395 56.7754C313.588 56.7754 247.775 122.588 247.775 204C247.775 285.413 313.588 351.713 395 351.713C476.413 351.713 542.713 285.413 542.713 204C542.713 122.588 476.413 56.7754 395 56.7754ZM269.713 204C269.713 134.775 325.775 78.7129 395 78.7129C420.838 78.7129 444.238 86.5129 464.225 99.6754L308.225 294.675C284.338 271.763 269.713 239.588 269.713 204ZM395 329.775C369.163 329.775 345.275 321.975 325.288 308.325L481.288 113.325C505.175 136.238 520.288 168.413 520.288 204C520.775 273.225 464.225 329.775 395 329.775Z" fill="white"/>
<path d="M182.453 344.721L73.5283 344.374V311.072L170.659 160.174H223.733V312.113H255.301V344.721H223.733V402.999H182.453V344.721ZM182.453 311.419V209.78L115.503 311.419H182.453ZM395.566 407.509C364.809 407.509 341.914 397.333 326.882 376.982C311.85 356.4 304.334 329.573 304.334 296.503V265.629C304.334 232.559 311.85 205.964 326.882 185.844C341.914 165.493 364.809 155.318 395.566 155.318C426.324 155.318 449.22 165.493 464.252 185.844C479.284 205.964 486.799 232.559 486.799 265.629V296.503C486.799 329.573 479.284 356.4 464.252 376.982C449.22 397.333 426.324 407.509 395.566 407.509ZM395.566 370.738C425.4 370.738 440.316 346.224 440.316 297.197V264.589C440.316 216.024 425.4 191.741 395.566 191.741C365.733 191.741 350.818 216.024 350.818 264.589V297.197C350.818 346.224 365.733 370.738 395.566 370.738ZM624.59 406.121C597.763 406.121 576.949 399.53 562.148 386.348C547.578 373.166 538.907 356.631 536.132 336.742H578.453C581.228 346.687 586.43 354.55 594.062 360.331C601.925 365.881 611.985 368.657 624.242 368.657C638.349 368.657 649.219 365.072 656.851 357.903C664.482 350.734 668.297 341.599 668.297 330.498C668.297 318.473 664.135 309.107 655.81 302.4C647.484 295.694 637.078 292.34 624.59 292.34H602.388V260.079H624.242C635.805 260.079 645.402 257.188 653.034 251.407C660.897 245.625 664.828 237.069 664.828 225.737C664.828 214.636 661.013 205.733 653.382 199.026C645.981 192.319 636.036 188.966 623.549 188.966C611.986 188.966 602.734 191.857 595.797 197.639C588.859 203.42 584.349 211.052 582.268 220.533H540.987C543.994 201.801 552.089 186.075 565.271 173.356C578.453 160.637 597.994 154.277 623.896 154.277C642.859 154.277 658.469 157.746 670.726 164.684C682.983 171.39 691.887 180.063 697.437 190.701C703.219 201.339 706.109 212.439 706.109 224.002C706.109 235.797 703.333 245.625 697.784 253.488C692.465 261.351 686.683 267.133 680.439 270.833C674.195 274.533 670.147 276.383 668.297 276.383V278.465C671.535 279.158 676.161 281.124 682.174 284.362C688.418 287.368 694.43 293.034 700.211 301.359C705.993 309.685 708.885 320.67 708.885 334.314C708.885 347.265 705.762 359.175 699.518 370.044C693.505 380.913 684.138 389.701 671.419 396.408C658.932 402.883 643.322 406.121 624.59 406.121Z" fill="#11133F"/>
</g>
<defs>
<clipPath id="clip0_1845_17871">
<rect width="790" height="408" fill="white"/>
</clipPath>
</defs>
</svg>
