<svg width="790" height="411" viewBox="0 0 790 411" fill="none" xmlns="http://www.w3.org/2000/svg">
<g clip-path="url(#clip0_1784_17824)">
<path fill-rule="evenodd" clip-rule="evenodd" d="M340.346 2C426.908 2 497.737 69.359 503.278 154.52C521.969 140.676 545.104 132.488 570.151 132.488C624.635 132.488 670.069 171.23 680.411 222.667H696.284C746.937 222.667 788 263.731 788 314.384C788 365.038 746.937 406.102 696.284 406.102H127.598H127.364H127.13H117.97V405.755C53.1212 400.951 2 346.815 2 280.738C2 211.502 58.1273 155.374 127.364 155.374C145.022 155.374 161.827 159.025 177.066 165.613C177.066 165.502 177.066 165.391 177.066 165.28C177.066 75.1031 250.169 2 340.346 2Z" fill="#F1F1F6"/>
<mask id="mask0_1784_17824" style="mask-type:luminance" maskUnits="userSpaceOnUse" x="0" y="0" width="790" height="408">
<path d="M790 0H0V408H790V0Z" fill="white"/>
<path fill-rule="evenodd" clip-rule="evenodd" d="M340.346 2C426.908 2 497.737 69.359 503.278 154.52C521.969 140.676 545.104 132.488 570.151 132.488C624.635 132.488 670.069 171.23 680.411 222.667H696.284C746.937 222.667 788 263.731 788 314.384C788 365.038 746.937 406.102 696.284 406.102H127.598H127.364H127.13H117.97V405.755C53.1212 400.951 2 346.815 2 280.738C2 211.502 58.1273 155.374 127.364 155.374C145.022 155.374 161.827 159.025 177.066 165.613C177.066 165.502 177.066 165.391 177.066 165.28C177.066 75.1031 250.169 2 340.346 2Z" fill="white"/>
</mask>
<g mask="url(#mask0_1784_17824)">
<path d="M503.278 154.52L501.744 154.62L501.927 157.434L504.192 155.756L503.278 154.52ZM680.411 222.667L678.904 222.97L679.152 224.205H680.411V222.667ZM127.598 406.102V404.564H127.596L127.598 406.102ZM127.364 406.102L127.362 407.639H127.365L127.364 406.102ZM117.97 406.102H116.433V407.639H117.97V406.102ZM117.97 405.755H119.508V404.328L118.084 404.222L117.97 405.755ZM177.066 165.613L176.456 167.024L178.608 167.954L178.603 165.61L177.066 165.613ZM504.812 154.421C499.219 68.4562 427.724 0.462891 340.346 0.462891V3.53721C426.093 3.53721 496.256 70.262 501.744 154.62L504.812 154.421ZM570.151 130.951C544.764 130.951 521.31 139.251 502.363 153.285L504.192 155.756C522.629 142.1 545.445 134.025 570.151 134.025V130.951ZM681.918 222.364C671.435 170.223 625.381 130.951 570.151 130.951V134.025C623.888 134.025 668.704 172.236 678.904 222.97L681.918 222.364ZM696.284 221.13H680.411V224.205H696.284V221.13ZM696.284 224.205C746.088 224.205 786.463 264.579 786.463 314.384H789.537C789.537 262.882 747.786 221.13 696.284 221.13V224.205ZM786.463 314.384C786.463 364.19 746.088 404.564 696.284 404.564V407.639C747.786 407.639 789.537 365.887 789.537 314.384H786.463ZM127.598 407.639H696.284V404.564H127.598V407.639ZM127.365 407.639H127.598L127.596 404.564L127.362 404.565L127.365 407.639ZM127.128 407.639H127.362L127.365 404.565L127.131 404.564L127.128 407.639ZM117.97 407.639H127.13L127.131 404.564H117.97V407.639ZM116.433 405.755V406.102H119.508V405.755H116.433ZM0.462891 280.738C0.462891 347.626 52.2109 402.425 117.857 407.288L118.084 404.222C54.0314 399.478 3.53721 346.004 3.53721 280.738H0.462891ZM127.364 153.837C57.2783 153.837 0.462891 210.653 0.462891 280.738H3.53721C3.53721 212.35 58.9762 156.911 127.364 156.911V153.837ZM177.676 164.202C162.248 157.532 145.235 153.837 127.364 153.837V156.911C144.808 156.911 161.406 160.518 176.456 167.024L177.676 164.202ZM175.529 165.28C175.529 165.392 175.529 165.504 175.529 165.616L178.603 165.61C178.603 165.5 178.603 165.39 178.603 165.28H175.529ZM340.346 0.462891C249.32 0.462891 175.529 74.2541 175.529 165.28H178.603C178.603 75.952 251.018 3.53721 340.346 3.53721V0.462891Z" fill="white"/>
</g>
<path d="M538.326 319.548L457.888 254.223C491.038 208.885 487.626 144.048 446.188 103.098C424.251 81.1602 395.001 68.9727 363.801 68.9727C332.601 68.9727 303.351 81.1602 281.413 103.098C236.076 148.435 236.076 222.535 281.413 267.873C303.351 289.81 332.601 301.998 363.801 301.998C393.538 301.998 421.326 290.785 443.263 270.798L524.676 336.61C526.626 338.073 529.063 339.048 531.501 339.048C534.913 339.048 537.838 337.585 539.788 335.148C543.688 330.273 543.201 323.448 538.326 319.548ZM363.801 280.06C338.451 280.06 315.051 270.31 297.013 252.273C259.963 215.223 259.963 155.26 297.013 118.698C315.051 100.66 338.451 90.9102 363.801 90.9102C389.151 90.9102 412.551 100.66 430.588 118.698C467.638 155.748 467.638 215.71 430.588 252.273C413.038 270.31 389.151 280.06 363.801 280.06Z" fill="white"/>
<path d="M181.453 347.721L72.5283 347.374V314.072L169.659 163.174H222.733V315.113H254.301V347.721H222.733V405.999H181.453V347.721ZM181.453 314.419V212.78L114.503 314.419H181.453ZM394.566 410.509C363.809 410.509 340.914 400.333 325.882 379.982C310.85 359.4 303.334 332.573 303.334 299.503V268.629C303.334 235.559 310.85 208.964 325.882 188.844C340.914 168.493 363.809 158.318 394.566 158.318C425.324 158.318 448.22 168.493 463.252 188.844C478.284 208.964 485.799 235.559 485.799 268.629V299.503C485.799 332.573 478.284 359.4 463.252 379.982C448.22 400.333 425.324 410.509 394.566 410.509ZM394.566 373.738C424.4 373.738 439.316 349.224 439.316 300.197V267.589C439.316 219.024 424.4 194.741 394.566 194.741C364.733 194.741 349.818 219.024 349.818 267.589V300.197C349.818 349.224 364.733 373.738 394.566 373.738ZM641.628 347.721L532.703 347.374V314.072L629.833 163.174H682.908V315.113H714.474V347.721H682.908V405.999H641.628V347.721ZM641.628 314.419V212.78L574.677 314.419H641.628Z" fill="#11133F"/>
</g>
<defs>
<clipPath id="clip0_1784_17824">
<rect width="790" height="411" fill="white"/>
</clipPath>
</defs>
</svg>
