<svg width="790" height="408" viewBox="0 0 790 408" fill="none" xmlns="http://www.w3.org/2000/svg">
<g clip-path="url(#clip0_1784_17842)">
<path fill-rule="evenodd" clip-rule="evenodd" d="M340.346 2C426.908 2 497.737 69.359 503.278 154.52C521.969 140.676 545.104 132.488 570.151 132.488C624.635 132.488 670.069 171.23 680.411 222.667H696.284C746.937 222.667 788 263.731 788 314.384C788 365.038 746.937 406.102 696.284 406.102H127.598H127.364H127.13H117.97V405.755C53.1212 400.951 2 346.815 2 280.738C2 211.502 58.1273 155.374 127.364 155.374C145.022 155.374 161.827 159.025 177.066 165.613C177.066 165.502 177.066 165.391 177.066 165.28C177.066 75.1031 250.169 2 340.346 2Z" fill="#F1F1F6"/>
<mask id="mask0_1784_17842" style="mask-type:luminance" maskUnits="userSpaceOnUse" x="0" y="0" width="790" height="408">
<path d="M790 0H0V408H790V0Z" fill="white"/>
<path fill-rule="evenodd" clip-rule="evenodd" d="M340.346 2C426.908 2 497.737 69.359 503.278 154.52C521.969 140.676 545.104 132.488 570.151 132.488C624.635 132.488 670.069 171.23 680.411 222.667H696.284C746.937 222.667 788 263.731 788 314.384C788 365.038 746.937 406.102 696.284 406.102H127.598H127.364H127.13H117.97V405.755C53.1212 400.951 2 346.815 2 280.738C2 211.502 58.1273 155.374 127.364 155.374C145.022 155.374 161.827 159.025 177.066 165.613C177.066 165.502 177.066 165.391 177.066 165.28C177.066 75.1031 250.169 2 340.346 2Z" fill="white"/>
</mask>
<g mask="url(#mask0_1784_17842)">
<path d="M503.278 154.52L501.744 154.62L501.927 157.434L504.192 155.756L503.278 154.52ZM680.411 222.667L678.904 222.97L679.152 224.205H680.411V222.667ZM127.598 406.102V404.564H127.596L127.598 406.102ZM127.364 406.102L127.362 407.639H127.365L127.364 406.102ZM117.97 406.102H116.433V407.639H117.97V406.102ZM117.97 405.755H119.508V404.328L118.084 404.222L117.97 405.755ZM177.066 165.613L176.456 167.024L178.608 167.954L178.603 165.61L177.066 165.613ZM504.812 154.421C499.219 68.4562 427.724 0.462891 340.346 0.462891V3.53721C426.093 3.53721 496.256 70.262 501.744 154.62L504.812 154.421ZM570.151 130.951C544.764 130.951 521.31 139.251 502.363 153.285L504.192 155.756C522.629 142.1 545.445 134.025 570.151 134.025V130.951ZM681.918 222.364C671.435 170.223 625.381 130.951 570.151 130.951V134.025C623.888 134.025 668.704 172.236 678.904 222.97L681.918 222.364ZM696.284 221.13H680.411V224.205H696.284V221.13ZM696.284 224.205C746.088 224.205 786.463 264.579 786.463 314.384H789.537C789.537 262.882 747.786 221.13 696.284 221.13V224.205ZM786.463 314.384C786.463 364.19 746.088 404.564 696.284 404.564V407.639C747.786 407.639 789.537 365.887 789.537 314.384H786.463ZM127.598 407.639H696.284V404.564H127.598V407.639ZM127.365 407.639H127.598L127.596 404.564L127.362 404.565L127.365 407.639ZM127.128 407.639H127.362L127.365 404.565L127.131 404.564L127.128 407.639ZM117.97 407.639H127.13L127.131 404.564H117.97V407.639ZM116.433 405.755V406.102H119.508V405.755H116.433ZM0.462891 280.738C0.462891 347.626 52.2109 402.425 117.857 407.288L118.084 404.222C54.0314 399.478 3.53721 346.004 3.53721 280.738H0.462891ZM127.364 153.837C57.2783 153.837 0.462891 210.653 0.462891 280.738H3.53721C3.53721 212.35 58.9762 156.911 127.364 156.911V153.837ZM177.676 164.202C162.248 157.532 145.235 153.837 127.364 153.837V156.911C144.808 156.911 161.406 160.518 176.456 167.024L177.676 164.202ZM175.529 165.28C175.529 165.392 175.529 165.504 175.529 165.616L178.603 165.61C178.603 165.5 178.603 165.39 178.603 165.28H175.529ZM340.346 0.462891C249.32 0.462891 175.529 74.2541 175.529 165.28H178.603C178.603 75.952 251.018 3.53721 340.346 3.53721V0.462891Z" fill="white"/>
</g>
<path d="M533.938 249.332L429.613 107.47C421.325 96.2574 408.65 89.9199 395 89.9199C380.863 89.9199 368.188 96.2574 360.388 107.47L256.063 249.332C246.313 262.495 244.85 279.557 252.163 294.182C259.475 308.807 274.1 318.07 290.675 318.07H499.325C515.9 318.07 530.525 308.807 537.838 294.182C545.15 280.045 543.688 262.495 533.938 249.332ZM518.338 284.432C514.438 291.745 507.613 296.132 499.325 296.132H290.675C282.388 296.132 275.563 291.745 271.663 284.432C268.25 277.12 268.738 268.832 273.613 262.495L377.938 120.632C381.838 115.27 388.175 111.857 395 111.857C401.825 111.857 408.163 114.782 412.063 120.632L516.388 262.495C521.263 268.832 521.75 277.12 518.338 284.432Z" fill="white"/>
<path d="M395.003 160.125C389.153 160.125 383.79 165 383.79 171.337V224.475C383.79 230.325 388.665 235.688 395.003 235.688C401.34 235.688 406.215 230.813 406.215 224.475V170.85C406.215 165 400.853 160.125 395.003 160.125Z" fill="white"/>
<path d="M395.003 246.885C389.153 246.885 383.79 251.76 383.79 258.097V260.535C383.79 266.385 388.665 271.747 395.003 271.747C401.34 271.747 406.215 266.872 406.215 260.535V257.61C406.215 251.76 400.853 246.885 395.003 246.885Z" fill="white"/>
<path d="M166.496 405.08C149.845 405.08 135.276 401.843 122.788 395.367C110.531 388.661 100.818 380.104 93.6487 369.697C86.7108 359.059 82.3169 347.496 80.4668 335.008H122.788C125.563 345.877 130.882 354.087 138.745 359.637C146.608 364.956 155.627 367.616 165.802 367.616C179.678 367.616 190.432 363.106 198.063 354.087C205.926 344.837 209.858 333.042 209.858 318.704C209.858 303.672 205.695 291.878 197.37 283.321C189.275 274.764 178.522 270.486 165.108 270.486C146.145 270.486 132.963 279.158 125.563 296.503L83.5888 295.115L90.1798 160.174H236.568V198.679H124.522L121.053 264.242H122.788C126.488 258.923 132.269 253.604 140.132 248.285C148.226 242.966 160.021 240.306 175.515 240.306C198.873 240.306 217.374 247.36 231.018 261.467C244.894 275.574 251.832 294.653 251.832 318.704C251.832 334.43 248.478 348.884 241.772 362.066C235.296 375.016 225.583 385.423 212.633 393.286C199.913 401.149 184.534 405.08 166.496 405.08ZM391.841 407.509C361.083 407.509 338.188 397.333 323.156 376.982C308.124 356.4 300.608 329.573 300.608 296.503V265.629C300.608 232.559 308.124 205.964 323.156 185.844C338.188 165.493 361.083 155.318 391.841 155.318C422.599 155.318 445.494 165.493 460.526 185.844C475.558 205.964 483.074 232.559 483.074 265.629V296.503C483.074 329.573 475.558 356.4 460.526 376.982C445.494 397.333 422.599 407.509 391.841 407.509ZM391.841 370.738C421.674 370.738 436.59 346.224 436.59 297.197V264.589C436.59 216.024 421.674 191.741 391.841 191.741C362.008 191.741 347.092 216.024 347.092 264.589V297.197C347.092 346.224 362.008 370.738 391.841 370.738ZM623.622 407.509C592.864 407.509 569.969 397.333 554.937 376.982C539.905 356.4 532.389 329.573 532.389 296.503V265.629C532.389 232.559 539.905 205.964 554.937 185.844C569.969 165.493 592.864 155.318 623.622 155.318C654.38 155.318 677.275 165.493 692.307 185.844C707.339 205.964 714.855 232.559 714.855 265.629V296.503C714.855 329.573 707.339 356.4 692.307 376.982C677.275 397.333 654.38 407.509 623.622 407.509ZM623.622 370.738C653.455 370.738 668.371 346.224 668.371 297.197V264.589C668.371 216.024 653.455 191.741 623.622 191.741C593.789 191.741 578.873 216.024 578.873 264.589V297.197C578.873 346.224 593.789 370.738 623.622 370.738Z" fill="#11133F"/>
</g>
<defs>
<clipPath id="clip0_1784_17842">
<rect width="790" height="408" fill="white"/>
</clipPath>
</defs>
</svg>
