<svg width="790" height="440" viewBox="0 0 790 440" fill="none" xmlns="http://www.w3.org/2000/svg">
<g clip-path="url(#clip0_1885_17869)">
<path fill-rule="evenodd" clip-rule="evenodd" d="M340.346 2C426.908 2 497.737 69.359 503.278 154.52C521.969 140.676 545.104 132.488 570.151 132.488C624.635 132.488 670.069 171.23 680.411 222.667H696.284C746.937 222.667 788 263.731 788 314.384C788 365.038 746.937 406.102 696.284 406.102H127.598H127.364H127.13H117.97V405.755C53.1212 400.951 2 346.815 2 280.738C2 211.502 58.1273 155.374 127.364 155.374C145.022 155.374 161.827 159.025 177.066 165.613C177.066 165.502 177.066 165.391 177.066 165.28C177.066 75.1031 250.169 2 340.346 2Z" fill="#F1F1F6"/>
<mask id="mask0_1885_17869" style="mask-type:luminance" maskUnits="userSpaceOnUse" x="0" y="0" width="790" height="408">
<path d="M790 0H0V408H790V0Z" fill="white"/>
<path fill-rule="evenodd" clip-rule="evenodd" d="M340.346 2C426.908 2 497.737 69.359 503.278 154.52C521.969 140.676 545.104 132.488 570.151 132.488C624.635 132.488 670.069 171.23 680.411 222.667H696.284C746.937 222.667 788 263.731 788 314.384C788 365.038 746.937 406.102 696.284 406.102H127.598H127.364H127.13H117.97V405.755C53.1212 400.951 2 346.815 2 280.738C2 211.502 58.1273 155.374 127.364 155.374C145.022 155.374 161.827 159.025 177.066 165.613C177.066 165.502 177.066 165.391 177.066 165.28C177.066 75.1031 250.169 2 340.346 2Z" fill="white"/>
</mask>
<g mask="url(#mask0_1885_17869)">
<path d="M503.278 154.52L501.744 154.62L501.927 157.434L504.192 155.756L503.278 154.52ZM680.411 222.667L678.904 222.97L679.152 224.205H680.411V222.667ZM127.598 406.102V404.564H127.596L127.598 406.102ZM127.364 406.102L127.362 407.639H127.365L127.364 406.102ZM117.97 406.102H116.433V407.639H117.97V406.102ZM117.97 405.755H119.508V404.328L118.084 404.222L117.97 405.755ZM177.066 165.613L176.456 167.024L178.608 167.954L178.603 165.61L177.066 165.613ZM504.812 154.421C499.219 68.4562 427.724 0.462891 340.346 0.462891V3.53721C426.093 3.53721 496.256 70.262 501.744 154.62L504.812 154.421ZM570.151 130.951C544.764 130.951 521.31 139.251 502.363 153.285L504.192 155.756C522.629 142.1 545.445 134.025 570.151 134.025V130.951ZM681.918 222.364C671.435 170.223 625.381 130.951 570.151 130.951V134.025C623.888 134.025 668.704 172.236 678.904 222.97L681.918 222.364ZM696.284 221.13H680.411V224.205H696.284V221.13ZM696.284 224.205C746.088 224.205 786.463 264.579 786.463 314.384H789.537C789.537 262.882 747.786 221.13 696.284 221.13V224.205ZM786.463 314.384C786.463 364.19 746.088 404.564 696.284 404.564V407.639C747.786 407.639 789.537 365.887 789.537 314.384H786.463ZM127.598 407.639H696.284V404.564H127.598V407.639ZM127.365 407.639H127.598L127.596 404.564L127.362 404.565L127.365 407.639ZM127.128 407.639H127.362L127.365 404.565L127.131 404.564L127.128 407.639ZM117.97 407.639H127.13L127.131 404.564H117.97V407.639ZM116.433 405.755V406.102H119.508V405.755H116.433ZM0.462891 280.738C0.462891 347.626 52.2109 402.425 117.857 407.288L118.084 404.222C54.0314 399.478 3.53721 346.004 3.53721 280.738H0.462891ZM127.364 153.837C57.2783 153.837 0.462891 210.653 0.462891 280.738H3.53721C3.53721 212.35 58.9762 156.911 127.364 156.911V153.837ZM177.676 164.202C162.248 157.532 145.235 153.837 127.364 153.837V156.911C144.808 156.911 161.406 160.518 176.456 167.024L177.676 164.202ZM175.529 165.28C175.529 165.392 175.529 165.504 175.529 165.616L178.603 165.61C178.603 165.5 178.603 165.39 178.603 165.28H175.529ZM340.346 0.462891C249.32 0.462891 175.529 74.2541 175.529 165.28H178.603C178.603 75.952 251.018 3.53721 340.346 3.53721V0.462891Z" fill="white"/>
</g>
<path d="M392 56.7754C310.588 56.7754 244.775 122.588 244.775 204C244.775 285.413 310.588 351.713 392 351.713C473.413 351.713 539.713 285.413 539.713 204C539.713 122.588 473.413 56.7754 392 56.7754ZM392 329.775C322.775 329.775 266.713 273.225 266.713 204C266.713 134.775 322.775 78.7129 392 78.7129C461.225 78.7129 517.775 135.263 517.775 204.488C517.775 273.225 461.225 329.775 392 329.775Z" fill="white"/>
<path d="M436.85 158.664C432.463 154.276 425.638 154.276 421.25 158.664L392 188.401L362.263 158.664C357.875 154.276 351.05 154.276 346.663 158.664C342.275 163.051 342.275 169.876 346.663 174.264L376.4 204.001L346.663 233.739C342.275 238.126 342.275 244.951 346.663 249.339C348.613 251.289 351.538 252.751 354.463 252.751C357.388 252.751 360.313 251.776 362.263 249.339L392 219.601L421.738 249.339C423.688 251.289 426.613 252.751 429.538 252.751C432.463 252.751 435.388 251.776 437.338 249.339C441.725 244.951 441.725 238.126 437.338 233.739L407.6 204.001L437.338 174.264C441.238 169.876 441.238 163.051 436.85 158.664Z" fill="white"/>
<path d="M166.496 405.08C149.845 405.08 135.276 401.843 122.788 395.367C110.531 388.661 100.818 380.104 93.6487 369.697C86.7108 359.059 82.3169 347.496 80.4668 335.008H122.788C125.563 345.877 130.882 354.087 138.745 359.637C146.608 364.956 155.627 367.616 165.802 367.616C179.678 367.616 190.432 363.106 198.063 354.087C205.926 344.837 209.858 333.042 209.858 318.704C209.858 303.672 205.695 291.878 197.37 283.321C189.275 274.764 178.522 270.486 165.108 270.486C146.145 270.486 132.963 279.158 125.563 296.503L83.5888 295.115L90.1798 160.174H236.568V198.679H124.522L121.053 264.242H122.788C126.488 258.923 132.269 253.604 140.132 248.285C148.226 242.966 160.021 240.306 175.515 240.306C198.873 240.306 217.374 247.36 231.018 261.467C244.894 275.574 251.832 294.653 251.832 318.704C251.832 334.43 248.478 348.884 241.772 362.066C235.296 375.016 225.583 385.423 212.633 393.286C199.913 401.149 184.534 405.08 166.496 405.08ZM391.841 407.509C361.083 407.509 338.188 397.333 323.156 376.982C308.124 356.4 300.608 329.573 300.608 296.503V265.629C300.608 232.559 308.124 205.964 323.156 185.844C338.188 165.493 361.083 155.318 391.841 155.318C422.599 155.318 445.494 165.493 460.526 185.844C475.558 205.964 483.074 232.559 483.074 265.629V296.503C483.074 329.573 475.558 356.4 460.526 376.982C445.494 397.333 422.599 407.509 391.841 407.509ZM391.841 370.738C421.674 370.738 436.59 346.224 436.59 297.197V264.589C436.59 216.024 421.674 191.741 391.841 191.741C362.008 191.741 347.092 216.024 347.092 264.589V297.197C347.092 346.224 362.008 370.738 391.841 370.738ZM620.863 406.121C594.037 406.121 573.223 399.53 558.423 386.348C543.853 373.166 535.181 356.631 532.406 336.742H574.726C577.502 346.687 582.705 354.55 590.337 360.331C598.2 365.881 608.259 368.657 620.516 368.657C634.623 368.657 645.493 365.072 653.124 357.903C660.756 350.734 664.572 341.599 664.572 330.498C664.572 318.473 660.409 309.107 652.084 302.4C643.758 295.694 633.351 292.34 620.863 292.34H598.662V260.079H620.516C632.079 260.079 641.677 257.188 649.308 251.407C657.171 245.625 661.103 237.069 661.103 225.737C661.103 214.636 657.287 205.733 649.655 199.026C642.255 192.319 632.311 188.966 619.823 188.966C608.259 188.966 599.009 191.857 592.071 197.639C585.133 203.42 580.624 211.052 578.542 220.533H537.262C540.268 201.801 548.363 186.075 561.545 173.356C574.726 160.637 594.268 154.277 620.169 154.277C639.133 154.277 654.743 157.746 667 164.684C679.257 171.39 688.16 180.063 693.711 190.701C699.492 201.339 702.383 212.439 702.383 224.002C702.383 235.797 699.608 245.625 694.058 253.488C688.739 261.351 682.957 267.133 676.713 270.833C670.469 274.533 666.422 276.383 664.572 276.383V278.465C667.809 279.158 672.435 281.124 678.447 284.362C684.691 287.368 690.704 293.034 696.486 301.359C702.267 309.685 705.158 320.67 705.158 334.314C705.158 347.265 702.036 359.175 695.792 370.044C689.779 380.913 680.413 389.701 667.694 396.408C655.206 402.883 639.595 406.121 620.863 406.121Z" fill="#11133F"/>
</g>
<defs>
<clipPath id="clip0_1885_17869">
<rect width="790" height="408" fill="white"/>
</clipPath>
</defs>
</svg>
